<svg width="21" height="20" viewBox="0 0 21 20" fill="none" xmlns="http://www.w3.org/2000/svg">
<g id="sparkles">
<path id="shape" d="M13.2041 4.6875L14.9854 4L15.6416 2.25C15.6729 2.09375 15.8291 2 15.9854 2C16.1104 2 16.2666 2.09375 16.2979 2.25L16.9854 4L18.7354 4.6875C18.8916 4.71875 18.9854 4.875 18.9854 5C18.9854 5.15625 18.8916 5.3125 18.7354 5.34375L16.9854 6L16.2979 7.78125C16.2666 7.90625 16.1104 8 15.9854 8C15.8291 8 15.6729 7.90625 15.6416 7.78125L14.9854 6L13.2041 5.34375C13.0791 5.3125 12.9854 5.15625 12.9854 5C12.9854 4.875 13.0791 4.71875 13.2041 4.6875ZM3.2666 9.5L3.79785 9.28125L4.04785 9.15625H4.0791L6.8291 7.875L8.11035 5.09375L8.23535 4.84375L8.48535 4.3125C8.54785 4.125 8.73535 4 8.92285 4C9.11035 4 9.29785 4.125 9.3916 4.3125L9.6416 4.84375L9.73535 5.09375L9.7666 5.125L11.0166 7.875L13.7979 9.15625L14.0479 9.28125L14.5791 9.53125C14.7666 9.59375 14.8916 9.78125 14.8916 9.96875C14.8916 10.1562 14.7666 10.3438 14.5791 10.4375L14.0479 10.6562L13.7979 10.7812L11.0166 12.0625L9.73535 14.8125V14.8438L9.61035 15.0938L9.3916 15.625C9.29785 15.8125 9.11035 15.9375 8.92285 15.9375C8.73535 15.9375 8.54785 15.8125 8.48535 15.625L8.23535 15.0938L8.11035 14.8438V14.8125L6.8291 12.0625L4.0791 10.7812H4.04785L3.79785 10.6562L3.2666 10.4375C3.0791 10.3438 2.98535 10.1562 2.98535 9.96875C2.98535 9.78125 3.0791 9.59375 3.2666 9.5ZM5.86035 9.96875L7.4541 10.7188C7.7666 10.8438 8.04785 11.125 8.2041 11.4375L8.92285 13.0312L9.67285 11.4375C9.8291 11.125 10.0791 10.8438 10.3916 10.7188L11.9854 9.96875L10.3916 9.21875C10.0791 9.09375 9.8291 8.8125 9.67285 8.5L8.92285 6.90625L8.2041 8.5C8.04785 8.8125 7.7666 9.09375 7.4541 9.21875L5.86035 9.96875ZM14.9854 14L15.6416 12.25C15.6729 12.0938 15.8291 12 15.9854 12C16.1104 12 16.2666 12.0938 16.2979 12.25L16.9854 14L18.7354 14.6875C18.8916 14.7188 18.9854 14.875 18.9854 15C18.9854 15.1562 18.8916 15.3125 18.7354 15.3438L16.9854 16L16.2979 17.7812C16.2666 17.9062 16.1104 18 15.9854 18C15.8291 18 15.6729 17.9062 15.6416 17.7812L14.9854 16L13.2041 15.3438C13.0791 15.3125 12.9854 15.1562 12.9854 15C12.9854 14.875 13.0791 14.7188 13.2041 14.6875L14.9854 14Z" fill="url(#paint0_linear_2261_2072)"/>
</g>
<defs>
<linearGradient id="paint0_linear_2261_2072" x1="18.9854" y1="2" x2="-0.0272543" y2="7.40722" gradientUnits="userSpaceOnUse">
<stop stop-color="#1FC0FF"/>
<stop offset="1" stop-color="#CC3CFF"/>
</linearGradient>
</defs>
</svg>
