<svg width="25" height="24" viewBox="0 0 25 24" fill="none" xmlns="http://www.w3.org/2000/svg">
<g id="thumbs-up">
<path id="shape" d="M15.4978 3.70599C16.9603 4.11773 17.7853 5.61496 17.3728 7.03732L17.1478 7.78594C17.0353 8.19768 16.8853 8.60941 16.6978 8.98372H20.1853C21.4978 8.98372 22.5853 10.0692 22.5853 11.3793C22.5853 12.053 22.2853 12.6519 21.8728 13.1011C21.9478 13.3257 21.9853 13.5503 21.9853 13.8123C21.9853 14.5609 21.6103 15.2721 21.0103 15.7213C21.0478 15.871 21.0853 16.0207 21.0853 16.2079C21.0853 16.9565 20.7103 17.6302 20.1853 18.0794C20.1103 19.352 19.0603 20.4001 17.7853 20.4001H14.1103C13.2853 20.4001 12.4603 20.1381 11.7853 19.6889L9.46025 18.1543C9.04775 17.8548 8.93525 17.2933 9.23525 16.8816C9.49775 16.4699 10.0603 16.3576 10.4728 16.657L12.7978 18.1917C13.1728 18.4537 13.6228 18.566 14.1103 18.566H17.7853C18.0853 18.566 18.3853 18.304 18.3853 17.9671C18.3853 17.9297 18.3478 17.8548 18.3478 17.8174C18.2353 17.3682 18.4603 16.919 18.8728 16.7319C19.0978 16.657 19.2853 16.4324 19.2853 16.1704C19.2853 16.0581 19.2103 15.9084 19.1353 15.8335C18.9478 15.5715 18.9103 15.2347 19.0228 14.9352C19.0978 14.6358 19.3603 14.4486 19.6978 14.3737C19.9603 14.3363 20.1853 14.0743 20.1853 13.7749C20.1853 13.6251 20.1103 13.5128 20.0353 13.4005C19.8103 13.176 19.7353 12.8765 19.8103 12.5771C19.8853 12.2776 20.1103 12.053 20.3728 11.9408C20.5978 11.8659 20.7853 11.6413 20.7853 11.3793C20.7853 11.0798 20.4853 10.7804 20.1853 10.7804H15.1603C14.8228 10.7804 14.5228 10.5932 14.3728 10.2938C14.2228 9.99435 14.2228 9.65747 14.4103 9.39546C14.8603 8.75914 15.1978 8.04795 15.4228 7.29934L15.6478 6.55072C15.7603 6.06412 15.4978 5.57752 15.0103 5.4278C14.5228 5.31551 14.0353 5.57752 13.8853 6.06412L13.6978 6.81274C13.4728 7.56135 13.0978 8.23511 12.5728 8.834L10.6228 10.9301C10.2853 11.3044 9.72275 11.3419 9.34775 11.005C9.01025 10.6681 8.97275 10.1066 9.31025 9.73234L11.2228 7.63622C11.5603 7.26191 11.8228 6.81274 11.9728 6.32614L12.1603 5.57752C12.5728 4.11773 14.0728 3.29425 15.4978 3.70599ZM4.58525 9.58261H6.98525C7.62275 9.58261 8.18525 10.1441 8.18525 10.7804V19.1649C8.18525 19.8386 7.62275 20.3627 6.98525 20.3627H4.58525C3.91025 20.3627 3.38525 19.8386 3.38525 19.1649V10.7804C3.38525 10.1441 3.91025 9.58261 4.58525 9.58261Z" fill="#A9BBCB"/>
</g>
</svg>
