<svg width="25" height="24" viewBox="0 0 25 24" fill="none" xmlns="http://www.w3.org/2000/svg">
<g id="thumbs-down">
<path id="shape" d="M10.4729 20.2969C11.8979 20.7087 13.3979 19.8477 13.8104 18.4251L13.9979 17.6764C14.1479 17.1897 14.4104 16.7404 14.7479 16.3661L16.6604 14.2696C16.9979 13.8952 16.9604 13.3337 16.6229 12.9967C16.2479 12.6598 15.6854 12.6973 15.3479 13.0716L13.3979 15.1681C12.8729 15.7296 12.4979 16.4409 12.2729 17.1897L12.0854 17.9384C11.9354 18.4251 11.4479 18.6872 10.9604 18.5748C10.4729 18.4251 10.2104 17.9384 10.3229 17.4517L10.5479 16.703C10.7729 15.9543 11.1104 15.243 11.5604 14.6065C11.7479 14.3445 11.7479 13.9701 11.5979 13.6706C11.4479 13.3711 11.1479 13.1839 10.8104 13.1839H5.78545C5.48545 13.1839 5.18545 12.9219 5.18545 12.5849C5.18545 12.3603 5.37295 12.1357 5.59795 12.0234C5.86045 11.9485 6.08545 11.6865 6.16045 11.4244C6.23545 11.1249 6.16045 10.8254 5.93545 10.6008C5.86045 10.4885 5.78545 10.3762 5.78545 10.189C5.78545 9.92693 6.01045 9.66487 6.27295 9.62743C6.61045 9.55256 6.87295 9.32794 6.94795 9.06588C7.06045 8.76638 7.02295 8.42945 6.83545 8.16739C6.76045 8.09252 6.68545 7.94277 6.68545 7.79303C6.68545 7.5684 6.87295 7.34378 7.09795 7.23147C7.51045 7.08173 7.73545 6.63248 7.62295 6.18324C7.62295 6.10837 7.58545 6.07093 7.58545 5.99606C7.58545 5.69656 7.88545 5.39707 8.18545 5.39707H11.8604C12.3479 5.39707 12.7979 5.54681 13.1729 5.80887L15.4979 7.34378C15.9104 7.64328 16.4729 7.53097 16.7354 7.08173C17.0354 6.66992 16.9229 6.1458 16.5104 5.84631L14.1854 4.3114C13.5104 3.86216 12.6854 3.6001 11.8604 3.6001H8.18545C6.91045 3.6001 5.86045 4.64833 5.78545 5.92118C5.26045 6.37043 4.88545 7.04429 4.88545 7.79303C4.88545 7.98021 4.92295 8.12996 4.96045 8.27971C4.36045 8.72895 3.98545 9.40281 3.98545 10.189C3.98545 10.451 4.02295 10.6757 4.09795 10.9003C3.68545 11.3495 3.38545 11.9485 3.38545 12.5849C3.38545 13.9327 4.47295 14.9809 5.78545 14.9809H9.27295C9.08545 15.3927 8.93545 15.8045 8.82295 16.2163L8.59795 16.9651C8.18545 18.3877 9.01045 19.8851 10.4729 20.2969ZM21.3854 16.7779C22.0604 16.7779 22.5854 16.2538 22.5854 15.5799V7.19404C22.5854 6.55761 22.0604 5.99606 21.3854 5.99606H18.9854C18.3479 5.99606 17.7854 6.55761 17.7854 7.19404V15.5799C17.7854 16.2538 18.3479 16.7779 18.9854 16.7779H21.3854Z" fill="#A9BBCB"/>
</g>
</svg>
